<?xml version="1.0" encoding="UTF-8" standalone="no"?>
<!-- Created with Inkscape (http://www.inkscape.org/) -->

<svg
   xmlns:dc="http://purl.org/dc/elements/1.1/"
   xmlns:cc="http://creativecommons.org/ns#"
   xmlns:rdf="http://www.w3.org/1999/02/22-rdf-syntax-ns#"
   xmlns:svg="http://www.w3.org/2000/svg"
   xmlns="http://www.w3.org/2000/svg"
   xmlns:sodipodi="http://sodipodi.sourceforge.net/DTD/sodipodi-0.dtd"
   xmlns:inkscape="http://www.inkscape.org/namespaces/inkscape"
   width="226.81056mm"
   height="213.09387mm"
   viewBox="0 0 226.81056 213.09387"
   version="1.1"
   id="svg1956"
   inkscape:version="0.92.4 (5da689c313, 2019-01-14)"
   sodipodi:docname="secondFunc.svg">
  <defs
     id="defs1950" />
  <sodipodi:namedview
     id="base"
     pagecolor="#ffffff"
     bordercolor="#666666"
     borderopacity="1.0"
     inkscape:pageopacity="0.0"
     inkscape:pageshadow="2"
     inkscape:zoom="0.7"
     inkscape:cx="233.93716"
     inkscape:cy="556.07071"
     inkscape:document-units="mm"
     inkscape:current-layer="layer1"
     showgrid="false"
     fit-margin-top="0"
     fit-margin-left="0"
     fit-margin-right="0"
     fit-margin-bottom="0"
     inkscape:window-width="1366"
     inkscape:window-height="705"
     inkscape:window-x="-8"
     inkscape:window-y="-8"
     inkscape:window-maximized="1" />
  <metadata
     id="metadata1953">
    <rdf:RDF>
      <cc:Work
         rdf:about="">
        <dc:format>image/svg+xml</dc:format>
        <dc:type
           rdf:resource="http://purl.org/dc/dcmitype/StillImage" />
        <dc:title />
      </cc:Work>
    </rdf:RDF>
  </metadata>
  <g
     inkscape:label="Layer 1"
     inkscape:groupmode="layer"
     id="layer1"
     transform="translate(9.846477,-40.018398)">
    <g
       transform="matrix(1.7926392,0,0,1.7931119,-72.507221,-287.87204)"
       id="secondFunc"
       inkscape:label="secondFunc"
       style="stroke-width:0.55776322">
      <rect
         style="fill:#db5461;fill-opacity:0.98431373;stroke:#000000;stroke-width:1.67328961;stroke-linejoin:round;stroke-miterlimit:4;stroke-dasharray:none;stroke-opacity:1"
         id="rect915"
         width="125.86607"
         height="112.32693"
         x="35.279575"
         y="189.04933" />
      <path
         style="fill:#ddddd0;fill-opacity:1;stroke:#000000;stroke-width:1.67328961;stroke-linecap:butt;stroke-linejoin:round;stroke-miterlimit:4;stroke-dasharray:none;stroke-opacity:1"
         d="m 35.279575,189.0862 v -5.90019 H 161.15283 v 5.90019 z"
         id="path917"
         inkscape:connector-curvature="0"
         sodipodi:nodetypes="ccccc" />
      <circle
         style="fill:#ff5f57;fill-opacity:1;stroke:#000000;stroke-width:0.14780726;stroke-miterlimit:4;stroke-dasharray:none;stroke-opacity:1"
         id="circle919"
         cx="38.447262"
         cy="185.89273"
         r="1.8071986" />
      <circle
         r="1.8071986"
         cy="185.89273"
         cx="43.83342"
         id="circle921"
         style="fill:#ffbd2e;fill-opacity:0.99607843;stroke:#000000;stroke-width:0.14780726;stroke-miterlimit:4;stroke-dasharray:none;stroke-opacity:1" />
      <circle
         style="fill:#28ca41;fill-opacity:0.9848485;stroke:#000000;stroke-width:0.14780726;stroke-miterlimit:4;stroke-dasharray:none;stroke-opacity:1"
         id="circle923"
         cx="49.054218"
         cy="185.89273"
         r="1.8071986" />
      <path
         sodipodi:nodetypes="ccccc"
         inkscape:connector-curvature="0"
         d="m 38.180621,196.66439 h 60.326463 v 46.58195 H 38.180621 Z"
         style="fill:#cff2aa;fill-opacity:1;stroke:#000000;stroke-width:0.31513622;stroke-linecap:butt;stroke-linejoin:miter;stroke-miterlimit:4;stroke-dasharray:none;stroke-opacity:1"
         id="path1030" />
      <path
         sodipodi:nodetypes="ccccc"
         id="path1035"
         style="fill:#19beda;fill-opacity:0.98431373;stroke:#000000;stroke-width:0.31513622;stroke-linecap:butt;stroke-linejoin:miter;stroke-miterlimit:4;stroke-dasharray:none;stroke-opacity:1"
         d="m 98.447034,196.66439 h 60.326456 v 46.58195 H 98.447034 Z"
         inkscape:connector-curvature="0" />
      <path
         sodipodi:nodetypes="ccccc"
         id="path1037"
         style="fill:#c8b7b7;fill-opacity:1;stroke:#000000;stroke-width:0.31513622;stroke-linecap:butt;stroke-linejoin:miter;stroke-miterlimit:4;stroke-dasharray:none;stroke-opacity:1"
         d="m 38.180621,243.24633 h 60.326463 v 46.58194 H 38.180621 Z"
         inkscape:connector-curvature="0" />
      <path
         sodipodi:nodetypes="ccccc"
         inkscape:connector-curvature="0"
         d="M 98.557544,243.24633 H 158.884 v 46.58194 H 98.557544 Z"
         style="fill:none;stroke:#000000;stroke-width:0.31513622;stroke-linecap:butt;stroke-linejoin:miter;stroke-miterlimit:4;stroke-dasharray:none;stroke-opacity:1"
         id="path1039" />
      <path
         style="fill:#fbb03b;stroke:#000000;stroke-width:0.14757484;stroke-opacity:1"
         inkscape:connector-curvature="0"
         class="st11"
         d="m 61.758691,252.16791 c 0,0.47117 -0.680966,0.8528 -1.520057,0.8528 -0.83909,0 -1.520054,-0.38163 -1.520054,-0.8528 0,-0.47115 0.680964,-0.85278 1.520054,-0.85278 0.839091,0 1.520057,0.38163 1.520057,0.85278 z"
         id="path1180" />
      <path
         id="path2628"
         d="m 77.792787,252.2435 c 0,0.47115 -0.680967,0.85279 -1.520057,0.85279 -0.839091,0 -1.520056,-0.38164 -1.520056,-0.85279 0,-0.47114 0.680965,-0.8528 1.520056,-0.8528 0.83909,0 1.520057,0.38166 1.520057,0.8528 z"
         class="st11"
         inkscape:connector-curvature="0"
         style="fill:#fbb03b;stroke:#000000;stroke-width:0.14757484;stroke-opacity:1" />
      <path
         sodipodi:nodetypes="ccsccccccccccccc"
         style="fill:#ffffff;stroke:#040404;stroke-width:0.167329;stroke-linecap:round;stroke-linejoin:round;stroke-miterlimit:10;stroke-dasharray:none;stroke-opacity:1"
         d="m 67.680316,243.33182 0.60666,5.06387 h -7.794571 c -0.02254,0 -0.03995,0.0106 -0.0577,0.0223 l -0.120597,-0.0906 -4.787515,3.60183 h 9.575032 l -4.383537,-3.29789 H 75.68448 l -4.382672,3.29789 h 9.57417 l -4.787514,-3.60183 -0.09132,0.0685 h -7.200225 l 0.765605,-5.05412 z"
         id="polygon1182"
         inkscape:connector-curvature="0" />
      <g
         transform="matrix(0.21724043,0,0,0.21924529,24.634106,208.81724)"
         style="stroke:#000000;stroke-width:0.67726767;stroke-linejoin:round;stroke-miterlimit:4;stroke-dasharray:none;stroke-opacity:1"
         id="g1218">
        <g
           style="stroke:#000000;stroke-width:0.67726767;stroke-linejoin:round;stroke-miterlimit:4;stroke-dasharray:none;stroke-opacity:1"
           id="g1216">
          <path
             style="fill:#ffffff;stroke:#000000;stroke-width:0.67726767;stroke-linejoin:round;stroke-miterlimit:4;stroke-dasharray:none;stroke-opacity:1"
             inkscape:connector-curvature="0"
             class="st13"
             d="m 129,304.93 c 0,1.7 -1.37,3.07 -3.07,3.07 h -3.86 c -1.7,0 -3.07,-1.37 -3.07,-3.07 v -3.86 c 0,-1.7 1.37,-3.07 3.07,-3.07 h 3.86 c 1.7,0 3.07,1.37 3.07,3.07 z"
             id="path1204" />
          <path
             style="fill:#ffffff;stroke:#000000;stroke-width:0.67726767;stroke-linejoin:round;stroke-miterlimit:4;stroke-dasharray:none;stroke-opacity:1"
             inkscape:connector-curvature="0"
             class="st13"
             d="m 278,304.93 c 0,1.7 -1.37,3.07 -3.07,3.07 h -3.86 c -1.7,0 -3.07,-1.37 -3.07,-3.07 v -3.86 c 0,-1.7 1.37,-3.07 3.07,-3.07 h 3.86 c 1.7,0 3.07,1.37 3.07,3.07 z"
             id="path1206" />
          <path
             style="fill:#ffff66;stroke:#000000;stroke-width:0.67726767;stroke-linejoin:round;stroke-miterlimit:4;stroke-dasharray:none;stroke-opacity:1"
             inkscape:connector-curvature="0"
             class="st14"
             d="m 281,298.44 c 0,3.62 -2.94,6.56 -6.56,6.56 H 121.56 c -3.62,0 -6.56,-2.94 -6.56,-6.56 v -30.88 c 0,-3.62 2.94,-6.56 6.56,-6.56 h 152.88 c 3.62,0 6.56,2.94 6.56,6.56 z"
             id="path1208" />
          <path
             style="fill:#ffff66;stroke:#000000;stroke-width:0.67726767;stroke-linejoin:round;stroke-miterlimit:4;stroke-dasharray:none;stroke-opacity:1"
             inkscape:connector-curvature="0"
             class="st15"
             d="m 281.5,299.5 c 0,2.76 -2.24,5 -5,5 h -156 c -2.76,0 -5,-2.24 -5,-5 v -12 c 0,-2.76 2.24,-5 5,-5 h 156 c 2.76,0 5,2.24 5,5 z"
             id="path1210" />
          <path
             style="fill:#ffff66;stroke:#000000;stroke-width:0.67726767;stroke-linejoin:round;stroke-miterlimit:4;stroke-dasharray:none;stroke-opacity:1"
             inkscape:connector-curvature="0"
             class="st15"
             d="m 127.5,298.36 c 0,3.12 -1.75,6.14 -4.51,6.14 h -12 c -2.76,0 -5.49,-3.03 -5.49,-6.14 v -23.71 c 0,-3.12 2.73,-5.14 5.49,-5.14 h 12 c 2.76,0 4.51,2.03 4.51,5.14 z"
             id="path1212" />
          <path
             style="fill:#ffff66;stroke:#000000;stroke-width:0.67726767;stroke-linejoin:round;stroke-miterlimit:4;stroke-dasharray:none;stroke-opacity:1"
             inkscape:connector-curvature="0"
             class="st15"
             d="m 291.5,298.36 c 0,3.12 -1.75,6.14 -4.51,6.14 h -12 c -2.76,0 -5.49,-3.03 -5.49,-6.14 v -23.71 c 0,-3.12 2.73,-5.14 5.49,-5.14 h 12 c 2.76,0 4.51,2.03 4.51,5.14 z"
             id="path1214" />
        </g>
      </g>
      <g
         transform="matrix(0.17539943,0,0,0.17657338,34.366906,220.34736)"
         id="g1228"
         style="stroke:#000000;stroke-width:0.83988351;stroke-linejoin:round;stroke-miterlimit:4;stroke-dasharray:none;stroke-opacity:1">
        <path
           id="path1222"
           d="m 304,354.93 c 0,1.7 -1.37,3.07 -3.07,3.07 h -3.86 c -1.7,0 -3.07,-1.37 -3.07,-3.07 v -3.86 c 0,-1.7 1.37,-3.07 3.07,-3.07 h 3.86 c 1.7,0 3.07,1.37 3.07,3.07 z"
           class="st13"
           inkscape:connector-curvature="0"
           style="fill:#ffffff;stroke:#000000;stroke-width:0.83988351;stroke-linejoin:round;stroke-miterlimit:4;stroke-dasharray:none;stroke-opacity:1" />
        <path
           id="path1224"
           d="m 338,354.93 c 0,1.7 -1.37,3.07 -3.07,3.07 h -3.86 c -1.7,0 -3.07,-1.37 -3.07,-3.07 v -3.86 c 0,-1.7 1.37,-3.07 3.07,-3.07 h 3.86 c 1.7,0 3.07,1.37 3.07,3.07 z"
           class="st13"
           inkscape:connector-curvature="0"
           style="fill:#ffffff;stroke:#000000;stroke-width:0.83988351;stroke-linejoin:round;stroke-miterlimit:4;stroke-dasharray:none;stroke-opacity:1" />
        <path
           id="path1226"
           d="m 341.5,349.5 c 0,2.21 -1.79,4 -4,4 h -43 c -2.21,0 -4,-1.79 -4,-4 v -18 c 0,-2.21 1.79,-4 4,-4 h 43 c 2.21,0 4,1.79 4,4 z"
           class="st15"
           inkscape:connector-curvature="0"
           style="fill:#ffff66;stroke:#000000;stroke-width:0.83988351;stroke-linejoin:round;stroke-miterlimit:4;stroke-dasharray:none;stroke-opacity:1" />
      </g>
      <rect
         id="rect1250"
         height="1.2390721"
         width="15.79523"
         class="st17"
         y="260.65643"
         x="79.679832"
         style="clip-rule:evenodd;fill:#ffff66;fill-rule:evenodd;stroke:#000000;stroke-width:0.14757484;stroke-opacity:1" />
      <path
         id="path1252"
         d="M 83.037939,256.66319 H 82.55634 c -0.01548,1.5287 -1.483513,2.34804 -0.743305,4.22523 l 0.730917,-0.0201 h 0.504827 l 0.730916,0.0201 c 0.741758,-1.87719 -0.726269,-2.69653 -0.741756,-4.22523 z"
         class="st18"
         inkscape:connector-curvature="0"
         style="clip-rule:evenodd;fill:#ffffff;fill-rule:evenodd;stroke:#000000;stroke-width:0.14757484;stroke-opacity:1" />
      <rect
         id="rect1254"
         height="4.0269842"
         width="2.6325383"
         class="st18"
         y="256.86142"
         x="86.206276"
         style="clip-rule:evenodd;fill:#ffffff;fill-rule:evenodd;stroke:#000000;stroke-width:0.14757484;stroke-opacity:1" />
      <rect
         id="rect1256"
         height="4.0269842"
         width="1.2388417"
         class="st17"
         y="256.86142"
         x="88.993668"
         style="clip-rule:evenodd;fill:#ffff66;fill-rule:evenodd;stroke:#000000;stroke-width:0.14757484;stroke-opacity:1" />
      <rect
         id="rect1258"
         height="4.0269842"
         width="0.61942083"
         class="st18"
         y="256.86142"
         x="90.38736"
         style="clip-rule:evenodd;fill:#ffffff;fill-rule:evenodd;stroke:#000000;stroke-width:0.14757484;stroke-opacity:1" />
      <g
         transform="matrix(0.17539943,0,0,0.17657338,33.866217,220.59938)"
         id="g1270"
         style="stroke:#000000;stroke-width:0.83988351;stroke-linejoin:round;stroke-miterlimit:4;stroke-dasharray:none;stroke-opacity:1">
        <path
           id="path1264"
           d="m 62,354.93 c 0,1.7 -1.37,3.07 -3.07,3.07 H 55.07 C 53.37,358 52,356.63 52,354.93 v -3.86 c 0,-1.7 1.37,-3.07 3.07,-3.07 h 3.86 c 1.7,0 3.07,1.37 3.07,3.07 z"
           class="st13"
           inkscape:connector-curvature="0"
           style="fill:#ffffff;stroke:#000000;stroke-width:0.83988351;stroke-linejoin:round;stroke-miterlimit:4;stroke-dasharray:none;stroke-opacity:1" />
        <path
           id="path1266"
           d="m 96,354.93 c 0,1.7 -1.37,3.07 -3.07,3.07 H 89.07 C 87.37,358 86,356.63 86,354.93 v -3.86 c 0,-1.7 1.37,-3.07 3.07,-3.07 h 3.86 c 1.7,0 3.07,1.37 3.07,3.07 z"
           class="st13"
           inkscape:connector-curvature="0"
           style="fill:#ffffff;stroke:#000000;stroke-width:0.83988351;stroke-linejoin:round;stroke-miterlimit:4;stroke-dasharray:none;stroke-opacity:1" />
        <path
           id="path1268"
           d="m 99.5,349.5 c 0,2.21 -1.79,4 -4,4 h -43 c -2.21,0 -4,-1.79 -4,-4 v -18 c 0,-2.21 1.79,-4 4,-4 h 43 c 2.21,0 4,1.79 4,4 z"
           class="st15"
           inkscape:connector-curvature="0"
           style="fill:#ffff66;stroke:#000000;stroke-width:0.83988351;stroke-linejoin:round;stroke-miterlimit:4;stroke-dasharray:none;stroke-opacity:1" />
      </g>
      <g
         transform="matrix(0.17539943,0,0,0.17657338,33.866217,220.59938)"
         style="stroke:#000000;stroke-width:0.83856297;stroke-opacity:1"
         id="g1280">
        <path
           style="fill:#ffffff;stroke:#000000;stroke-width:0.83856297;stroke-opacity:1"
           inkscape:connector-curvature="0"
           class="st13"
           d="m 269,335 c 0,2.76 -2.24,5 -5,5 H 132 c -2.76,0 -5,-2.24 -5,-5 v 0 c 0,-2.76 2.24,-5 5,-5 h 132 c 2.76,0 5,2.24 5,5 z"
           id="path1274" />
        <rect
           style="fill:#ffffff;stroke:#000000;stroke-width:0.83856297;stroke-opacity:1"
           x="135"
           y="340"
           class="st13"
           width="7"
           height="18"
           id="rect1276" />
        <rect
           style="fill:#ffffff;stroke:#000000;stroke-width:0.83856297;stroke-opacity:1"
           x="254"
           y="340"
           class="st13"
           width="7"
           height="18"
           id="rect1278" />
      </g>
      <g
         transform="matrix(0.1548552,0,0,0.154884,36.962321,229.91163)"
         style="stroke:#000000;stroke-width:0.95289737;stroke-opacity:1"
         id="g1292">
        <g
           style="stroke:#000000;stroke-width:0.95289737;stroke-opacity:1"
           id="g1288">
          <g
             style="stroke:#000000;stroke-width:0.95289737;stroke-opacity:1"
             id="g1286">
            <rect
               style="fill:#ffff66;stroke:#000000;stroke-width:0.95289737;stroke-opacity:1"
               x="20"
               y="176"
               class="st14"
               width="89"
               height="31"
               id="rect1282" />
            <rect
               style="fill:#ffffff;stroke:#000000;stroke-width:0.95289737;stroke-miterlimit:10;stroke-opacity:1"
               x="23.5"
               y="180.5"
               class="st19"
               width="82"
               height="22"
               id="rect1284" />
          </g>
        </g>
        <path
           style="fill:#666666;stroke:#000000;stroke-width:0.95439804;stroke-linejoin:round;stroke-miterlimit:4;stroke-dasharray:none;stroke-opacity:1"
           inkscape:connector-curvature="0"
           class="st0"
           d="m 95.93,193.25 -1.52,0.22 v 0.21 l -1.95,-0.43 h -2.81 v -0.18 l -0.69,-0.1 v -0.54 l -0.11,-0.06 v -2.36 h 0.23 v -0.18 h -0.12 v -0.15 h -0.5 v -1.27 l 0.1,-0.06 v -0.11 H 88.2 v -0.07 h -0.17 v -1.11 h 0.15 v -0.27 l 0.07,-0.04 v -0.11 h -0.19 -0.1 v -0.58 h -0.05 c -0.09,-0.22 -0.33,-0.4 -0.65,-0.47 v -0.21 h 0.02 0.12 v -0.1 h -0.12 v -0.11 h -0.15 l -0.25,-1.28 -0.25,1.28 h -0.15 v 0.11 h -0.12 v 0.1 h 0.12 0.02 v 0.22 c -0.3,0.08 -0.53,0.25 -0.61,0.46 h -0.05 v 0.58 h -0.11 -0.18 v 0.11 l 0.07,0.04 v 0.27 h 0.15 v 1.11 H 85.6 v 0.07 h -0.36 v 0.11 l 0.1,0.06 v 1.27 h -0.5 v 0.15 h -0.12 v 0.18 h 0.23 v 2.36 l -0.11,0.06 v 0.54 l -0.94,0.16 v 0.11 l 0.52,0.08 0.01,1.31 h -3.02 v -0.25 h -0.12 v 0.25 h -1.04 v -0.07 h -0.26 v 0.07 H 79.9 l -1.09,0.67 v -0.01 H 78 v 0.06 h -0.64 l -0.22,0.4 h -0.07 c 0,0 -0.11,-0.11 -0.28,-0.1 0,0 -0.16,0.02 -0.27,0.1 H 76.43 L 76,196.1 h -0.3 v 0.07 h -0.11 v -0.89 h -0.08 v 0.89 h -0.63 v -0.15 l 0.08,-0.04 -0.79,-0.37 v -0.35 h -0.2 v 0.19 l -0.09,-0.05 v -0.17 h -0.13 v 0.1 l -0.93,-0.49 -0.66,-0.1 -4.26,0.03 v -0.04 h -0.17 v -0.07 h -0.86 v 0.07 h -0.56 v 0.05 l -0.82,0.01 -1.95,0.62 v 0.05 h 0.09 v 0.22 h -0.27 v 0.19 h -0.11 -0.13 v 0.04 h 0.06 v 0.53 l -0.48,0.01 -0.59,0.53 h 0.09 v 0.3 h -0.54 v -0.21 -0.1 -0.41 h 0.08 v -0.04 h -0.08 v -0.23 l -0.22,-0.1 c 0,0 0,-0.23 0,-0.24 H 61.4 c 0.06,-0.01 0.11,-0.04 0.11,-0.07 0,-0.04 -0.06,-0.08 -0.13,-0.08 h -0.04 v -0.14 0 c 0.03,0 0.06,-0.02 0.06,-0.03 0,-0.02 -0.03,-0.03 -0.06,-0.03 h -0.05 l -0.03,-0.65 -0.03,0.65 h -0.05 c -0.03,0 -0.06,0.01 -0.06,0.03 0,0.02 0.02,0.03 0.06,0.03 h 0.01 v 0.14 h -0.04 c -0.07,0 -0.13,0.03 -0.13,0.08 0,0.03 0.02,0.05 0.06,0.06 v 0 0.28 l -0.11,0.05 v -0.14 c 0.04,-0.01 0.07,-0.03 0.07,-0.06 0,-0.04 -0.05,-0.06 -0.11,-0.06 H 60.9 v -0.11 c 0.04,-0.01 0.07,-0.03 0.07,-0.05 0,-0.03 -0.04,-0.05 -0.1,-0.05 v -0.05 h 0.06 v -0.04 h -0.06 v -0.12 H 60.8 v 0.12 h -0.07 v 0.04 h -0.02 v -0.1 h -0.02 c 0.01,-0.01 0.02,-0.02 0.02,-0.03 h 0.01 c -0.05,-0.02 -0.04,-0.08 -0.06,-0.11 -0.01,-0.01 -0.02,-0.03 -0.02,-0.05 0.01,-0.02 0.03,-0.02 0.04,-0.04 0.02,-0.04 -0.01,-0.07 0.04,-0.11 0.03,-0.02 0.05,-0.02 0.06,-0.05 0.01,-0.02 0,-0.05 0,-0.07 -0.04,0.01 -0.05,0.04 -0.09,0.06 -0.04,0.01 -0.08,-0.01 -0.08,0.03 -0.07,-0.01 0,-0.08 -0.1,-0.07 -0.06,0.01 -0.04,0.05 -0.04,0.09 -0.01,0 -0.02,0 -0.03,0 0,0.04 -0.01,0.2 -0.08,0.19 0.01,0.03 -0.04,0.05 -0.05,0.09 -0.01,0.03 -0.01,0.08 0,0.12 0.01,0 0.01,0 0.02,0 v 0.12 l -0.61,-0.07 c 0.02,-0.02 0.03,-0.04 0.03,-0.06 0,-0.06 -0.09,-0.11 -0.19,-0.11 h -0.01 v -0.12 c 0.03,-0.01 0.05,-0.02 0.05,-0.04 0,-0.02 -0.03,-0.04 -0.07,-0.04 H 59.5 l -0.02,-0.59 -0.02,0.59 h -0.03 c -0.04,0 -0.07,0.02 -0.07,0.04 0,0.02 0.02,0.03 0.05,0.04 v 0.12 H 59.4 c -0.11,0 -0.19,0.05 -0.19,0.11 v 0 l -0.43,-0.05 v -0.03 h -0.09 v -0.08 h 0.06 v -0.02 h -0.06 v -0.06 h 0.01 v -0.02 h -0.01 v -0.09 h -0.05 v 0.09 h -0.09 c 0,0 0,0 0,0 0,-0.04 -0.04,-0.07 -0.1,-0.09 v -0.1 c 0.05,0 0.11,0.01 0.16,0.01 -0.05,-0.01 -0.15,-0.01 -0.17,-0.04 -0.02,-0.02 0,-0.07 0,-0.09 0,-0.02 -0.02,-0.07 0,-0.09 0.03,-0.03 0.09,-0.02 0.15,-0.02 0,-0.01 0,-0.02 0,-0.03 0.03,0 0.06,0 0.05,-0.02 -0.07,0 -0.14,0 -0.19,0.01 l 0.03,0.01 c -0.02,0 -0.04,0 -0.06,0 0,-0.03 0,-0.07 -0.07,-0.06 0,0.02 0,0.03 0,0.05 -0.05,0 -0.06,-0.02 -0.1,-0.03 -0.04,-0.01 -0.08,-0.01 -0.12,0 -0.01,0.05 0.06,0.04 0.11,0.04 0.08,0.01 0.08,0.01 0.08,0.06 0,0.07 0.07,0.11 0.07,0.18 -0.01,0 -0.02,0.01 -0.02,0.02 h -0.01 v 0.1 c -0.06,0.01 -0.1,0.05 -0.1,0.09 0,0 0,0 0,0 h -0.1 v -0.09 h -0.05 v 0.09 0.02 0.06 h -0.06 v 0.02 h 0.06 v 0.08 h -0.13 v 0.06 H 53.9 l -0.76,-0.71 v -0.1 h -0.03 -0.06 v -0.03 H 53 v 0.03 h -0.07 v -0.03 H 52.9 v 0.03 h -0.07 v -0.03 H 52.8 v 0.03 h -0.07 v -0.03 H 52.7 v 0.03 h -0.07 v -0.03 H 52.6 v 0.03 h -0.07 v -0.03 H 52.5 v 0.03 h -0.07 v -0.03 H 52.4 v 0.03 h -0.07 v -0.03 H 52.3 v 0.03 h -0.07 v -0.03 H 52.2 v 0.03 h -0.07 v -0.03 H 52.1 v 0.03 h -0.07 v -0.03 H 52 v 0.03 h -0.07 v -0.03 H 51.9 v 0.03 h -0.07 v -0.03 H 51.8 v 0.03 h -0.07 v -0.03 H 51.7 v 0.03 h -0.07 v -0.03 H 51.6 v 0.03 h -0.07 v -0.03 H 51.5 v 0.03 h -0.07 v -0.03 H 51.4 v 0.03 h -0.07 v -0.03 H 51.3 v 0.03 h -0.07 v -0.03 H 51.2 v 0.03 h -0.07 v -0.03 H 51.1 v 0.03 h -0.07 v -0.03 H 51 v 0.03 h -0.07 v -0.03 H 50.9 v 0.03 h -0.06 v -0.41 l 0.13,-0.11 v -0.06 h -0.05 v -0.05 h -0.04 v -0.06 l 0.03,-0.02 v -0.04 h -0.03 v -0.04 h -0.07 v -0.7 l 0.19,-0.14 0.03,-0.02 h -0.09 v -0.04 H 50.8 v -0.11 l -0.03,-0.02 v -0.12 h 0.08 v -0.06 h -0.13 v -0.06 l 0.07,-0.06 -0.01,-0.01 -0.05,0.03 -0.21,-0.83 h -0.06 l -0.02,-0.35 h -0.02 l -0.03,0.35 H 50.35 V 192 l -0.27,-0.55 v -0.36 l 0.11,-0.1 H 50.1 v -0.09 h 0.05 v -0.06 H 50.1 v -0.28 l 0.11,-0.1 H 50.1 v -0.06 h -0.03 v -0.13 h 0.07 v -0.07 h -0.08 v -0.05 h 0.03 v -0.01 h -0.03 v -0.01 h -0.01 l -0.01,-0.03 h 0.05 v -0.01 h -0.05 l -0.01,-0.04 h 0.06 v -0.01 H 50.03 L 50.02,190 h 0.05 v -0.01 h -0.05 l -0.01,-0.04 h 0.05 v -0.01 h -0.05 l -0.01,-0.09 -0.01,0.07 h -0.05 v 0.01 h 0.05 l -0.01,0.04 h -0.05 v 0.01 h 0.05 l -0.01,0.04 h -0.06 v 0.01 h 0.06 l -0.01,0.04 h -0.05 v 0.01 h 0.05 l -0.01,0.03 h -0.01 v 0.01 h -0.03 v 0.01 h 0.03 v 0.05 h -0.07 c -0.03,-0.05 -0.08,-0.1 -0.15,-0.13 v -0.48 h 0.13 v -0.07 h -0.14 v -0.1 c 0,0 0,0 0,-0.01 0,-0.06 -0.06,-0.11 -0.15,-0.14 v -0.1 h 0.01 c 0.05,0 0.09,-0.02 0.09,-0.05 0,-0.03 -0.04,-0.05 -0.09,-0.05 h -0.04 v -0.1 h 0.05 v -0.03 h -0.05 v -0.04 h 0.05 v -0.03 h -0.05 v -0.04 h 0.05 v -0.03 h -0.06 v -0.04 h 0.05 v -0.03 h -0.06 v -0.04 h 0.06 v -0.03 h -0.06 v -0.04 h 0.06 v -0.03 H 49.5 v -0.04 h 0.06 V 188.5 H 49.5 v -0.04 h 0.06 v -0.03 H 49.5 l -0.01,-0.04 h 0.06 v -0.03 h -0.06 v -0.04 h 0.06 v -0.03 h -0.06 v -0.04 h 0.06 v -0.03 h -0.07 v -0.04 h 0.06 v -0.03 h -0.07 l -0.02,-0.17 c 0.06,0 0.1,-0.03 0.1,-0.07 0,-0.04 -0.05,-0.07 -0.12,-0.07 -0.06,0 -0.11,0.03 -0.11,0.07 0,0.04 0.05,0.07 0.11,0.07 v 0 l -0.02,0.16 h -0.07 v 0.03 h 0.07 v 0.04 h -0.07 v 0.03 h 0.06 v 0.04 h -0.06 v 0.03 h 0.06 v 0.04 h -0.06 v 0.03 h 0.06 v 0.04 h -0.06 v 0.03 h 0.06 v 0.04 h -0.06 v 0.03 h 0.06 v 0.04 h -0.06 v 0.03 h 0.06 v 0.04 h -0.1 v 0.03 h 0.06 l -0.01,0.04 H 49.3 v 0.03 h 0.05 v 0.04 h -0.06 v 0.03 h 0.05 v 0.04 h -0.06 v 0.03 h 0.05 v 0.04 h -0.06 v 0.03 h 0.05 v 0.1 h -0.04 c -0.05,0 -0.09,0.02 -0.09,0.05 0,0.03 0.04,0.05 0.09,0.05 h 0.01 v 0.1 c -0.09,0.03 -0.14,0.08 -0.14,0.14 0,0 0,0.01 0,0.01 v 0.1 h -0.14 v 0.07 h 0.13 v 0.48 c -0.08,0.04 -0.13,0.09 -0.16,0.15 v -0.02 H 48.9 v -0.05 h 0.03 v -0.01 H 48.9 v -0.01 0 l -0.01,-0.03 h 0.05 v -0.01 h -0.05 l -0.01,-0.04 h 0.06 v -0.01 h -0.06 l -0.01,-0.04 h 0.05 v -0.01 h -0.05 l -0.01,-0.04 h 0.05 v -0.01 h -0.05 l -0.01,-0.07 -0.01,0.07 h -0.05 v 0.01 h 0.05 l -0.01,0.04 h -0.05 v 0.01 h 0.05 l -0.01,0.04 h -0.06 v 0.01 h 0.06 l -0.01,0.04 h -0.05 v 0.01 h 0.05 l -0.01,0.03 h -0.01 v 0.01 h -0.03 v 0.01 h 0.03 v 0.05 h -0.08 v 0.07 h 0.07 v 0.13 h -0.01 v 0.06 h -0.11 l 0.11,0.1 v 0.28 h -0.05 v 0.06 h 0.05 v 0.09 h -0.11 l 0.11,0.1 v 0.32 h -0.02 l -0.24,0.65 -0.01,-0.04 v -0.09 h -0.04 l -0.03,-0.35 H 48.4 l -0.02,0.35 h -0.06 l -0.21,0.83 -0.05,-0.03 -0.01,0.01 0.07,0.06 v 0.06 h -0.13 v 0.06 h 0.08 v 0.12 l -0.03,0.02 v 0.11 H 47.9 v 0.04 h -0.1 l 0.03,0.02 0.19,0.14 v 0.7 h -0.07 v 0.04 h -0.03 v 0.04 l 0.03,0.02 v 0.06 h -0.04 v 0.05 h -0.05 v 0.06 l 0.13,0.11 v 0.48 h -1.93 l -1.4,0.07 v 0.38 h 0.24 v 0.22 h -0.28 v 0.1 h 0.28 v 0.06 h -1.16 v -0.27 l 0.05,-0.03 v -0.09 h -0.04 v -0.12 -0.11 h -0.06 v -0.81 l 0.06,-0.08 h 0.09 v -0.02 h -0.1 v -0.09 h 0.08 v -0.04 h -0.2 v -0.33 h 0.13 v -0.04 h -0.14 l -0.03,-0.16 h 0.08 v -0.03 h -0.09 l -0.05,-0.14 v -0.06 h 0.07 v -0.03 h -0.07 v -0.03 h -0.08 v 0.03 H 43.4 v -0.06 h 0.09 v -0.04 H 43.4 v -0.22 h 0.08 v -0.03 H 43.4 43.38 l -0.02,-0.14 h 0.04 v -0.03 h -0.04 l -0.02,-0.19 h 0.04 v -0.02 h -0.05 l -0.01,-0.07 -0.01,0.07 h -0.05 v 0.02 h 0.05 l -0.02,0.19 H 43.2 v -0.4 h -0.04 v -0.27 h -0.07 -0.05 -0.12 l -0.02,-0.11 h 0.12 V 192 H 42.9 l -0.02,-0.11 H 43 v -0.02 h -0.12 l -0.02,-0.11 h 0.12 v -0.02 h -0.12 l -0.02,-0.11 h 0.12 v -0.02 h -0.12 l -0.02,-0.11 h 0.12 v -0.02 h -0.12 l -0.02,-0.11 h 0.11 v -0.02 H 42.8 l -0.02,-0.11 h 0.11 v -0.02 h -0.12 l -0.02,-0.11 h 0.11 v -0.02 h -0.12 l -0.02,-0.11 h 0.11 V 191 h -0.11 l -0.02,-0.11 h 0.11 v -0.02 H 42.7 l -0.02,-0.11 h 0.11 v -0.02 H 42.7 l -0.02,-0.11 h 0.11 v -0.02 h -0.11 l -0.02,-0.11 h 0.11 v -0.02 h -0.11 l -0.02,-0.11 h 0.11 v -0.02 h -0.11 l -0.02,-0.11 h 0.11 v -0.02 h -0.11 l -0.02,-0.11 h 0.11 v -0.02 H 42.6 l -0.02,-0.11 h 0.11 V 190 h -0.11 l -0.02,-0.11 h 0.1 v -0.02 h -0.11 l -0.02,-0.11 h 0.11 v -0.02 h -0.11 l -0.02,-0.11 h 0.1 v -0.01 H 42.5 l -0.02,-0.11 h 0.1 v -0.02 h -0.1 l -0.02,-0.11 h 0.1 v -0.02 h -0.1 l -0.03,-0.21 h 0.06 v -0.05 h -0.1 v -0.06 h 0.07 v -0.07 h -0.11 l -0.02,-0.29 h 0.1 v -0.02 h -0.1 v -0.07 h -0.02 v 0.07 h -0.1 v 0.02 h 0.09 l -0.02,0.29 h -0.11 v 0.07 h 0.07 v 0.06 h -0.1 v 0.05 h 0.07 l -0.03,0.21 h -0.1 v 0.02 h 0.1 l -0.02,0.11 h -0.11 v 0.02 h 0.1 l -0.02,0.11 h -0.11 v 0.01 h 0.1 l -0.02,0.11 h -0.11 v 0.02 h 0.1 l -0.02,0.11 h -0.11 v 0.02 h 0.1 l 0.08,0.11 h -0.11 v 0.02 h 0.1 l -0.02,0.11 H 42 v 0.02 h 0.11 l -0.02,0.11 h -0.11 v 0.02 h 0.11 l -0.02,0.11 h -0.11 v 0.02 h 0.11 l -0.02,0.11 h -0.11 v 0.02 h 0.11 l -0.02,0.11 h -0.11 v 0.02 h 0.11 l -0.02,0.11 H 41.9 v 0.02 h 0.11 L 42,190.88 h -0.11 v 0.02 H 42 l -0.02,0.1 h -0.11 v 0.02 h 0.11 l -0.02,0.11 h -0.12 v 0.02 h 0.11 l -0.02,0.11 h -0.12 v 0.02 h 0.11 l -0.02,0.11 h -0.12 v 0.02 h 0.11 l -0.02,0.11 h -0.12 v 0.02 h 0.12 l -0.02,0.11 h -0.12 v 0.02 h 0.12 l -0.02,0.11 h -0.12 v 0.02 h 0.12 l -0.02,0.11 h -0.12 v 0.02 h 0.12 l 0.02,0.07 h -0.12 v 0.02 h 0.12 l -0.02,0.11 h -0.12 -0.05 -0.07 v 0.27 h -0.04 l -0.01,0.4 h -0.08 l -0.02,-0.19 h 0.05 v -0.02 h -0.05 l -0.01,-0.07 -0.01,0.07 h -0.05 v 0.02 h 0.05 l -0.02,0.19 h -0.04 v 0.03 h 0.04 l -0.02,0.14 H 41.34 41.26 V 193 h 0.08 v 0.22 h -0.1 v 0.04 h 0.09 v 0.06 h -0.06 v -0.03 h -0.08 v 0.03 h -0.07 v 0.03 h 0.07 v 0.06 l -0.05,0.14 h -0.09 v 0.03 h 0.08 l -0.04,0.16 h -0.14 v 0.04 h 0.13 v 0.33 h -0.2 v 0.04 h 0.08 v 0.09 h -0.1 v 0.02 h 0.09 l 0.06,0.08 v 0.81 h -0.06 v 0.11 0.12 h -0.04 v 0.09 l 0.05,0.03 v 0.27 h -0.33 v -0.01 h -0.04 v -0.01 h -0.1 v -0.06 h 0.06 v -0.03 h -0.06 v -0.17 h -0.04 v 0.17 h -0.06 v 0.03 h 0.06 v 0.06 h -0.09 v -0.14 h 0.05 v -0.04 h -0.05 v 0 0 0 c 0,-0.03 -0.04,-0.06 -0.09,-0.07 l -0.04,-0.35 -0.04,0.35 c -0.05,0.01 -0.09,0.04 -0.09,0.07 v 0 0 0 h -0.05 v 0.04 h 0.05 v 0.14 h -0.11 v -0.06 h 0.07 v -0.03 h -0.07 v -0.17 h -0.04 v 0.17 H 39.9 v 0.03 h 0.05 v 0.06 h -0.08 v 0.01 h -0.04 v 0.05 h 0.04 v 0.06 H 39.8 v 0.03 h 0.07 v 0.1 h -0.1 v 0.07 h 0.1 v 0.23 h -1.22 v 0.05 h -0.17 v 0.04 h 0.09 v 0.07 h -0.15 v -0.03 h -0.07 v 0.05 h 0.15 v 0.94 h -2.13 l -0.98,-1.48 h -2.41 l -0.27,0.32 v -0.44 h -0.08 l -0.05,-0.28 h -0.14 l -0.54,-2.1 -0.92,2.18 H 30.7 v 0.65 0.39 h -0.22 v 0.45 2.41 h 8.02 0.98 1.17 0.98 0.73 4.12 4.13 5.6 0.2 4.22 0.73 0.31 0.54 2.36 6.3 3.24 10.36 2.58 11.48 v -6.27 z"
           id="path1290" />
      </g>
      <g
         style="stroke:#000000;stroke-width:0.72494698;stroke-miterlimit:4;stroke-dasharray:none;stroke-opacity:1"
         transform="matrix(0.20386803,0,0,0.20390596,161.5779,127.02516)"
         id="g1312">
        <rect
           id="rect1302"
           height="67"
           width="248"
           class="st16"
           y="371.17764"
           x="-287.63461"
           style="fill:#4d4d4d;stroke:#000000;stroke-width:0.72494698;stroke-miterlimit:4;stroke-dasharray:none;stroke-opacity:1" />
        <g
           style="stroke:#000000;stroke-width:0.72494698;stroke-miterlimit:4;stroke-dasharray:none;stroke-opacity:1"
           id="g1310">
          <rect
             id="rect1304"
             height="51"
             width="234"
             class="st20"
             y="379.67764"
             x="-281.13461"
             style="fill:#ffffff;stroke:#000000;stroke-width:0.72494698;stroke-miterlimit:4;stroke-dasharray:none;stroke-opacity:1" />
          <g
             style="stroke:#000000;stroke-width:0.72494698;stroke-miterlimit:4;stroke-dasharray:none;stroke-opacity:1"
             id="g1308">
            <path
               id="path1306"
               d="m -59.494616,403.53764 v 3.32 l -0.52,-0.93 0.12,-0.29 -0.42,-1.2 v -0.67 l -0.85,-1.83 v -1.64 l -2.08,-0.33 h -0.5 v 1.84 h -0.67 v 3.14 0.18 c -0.87,-1.66 -1.41,-1.67 -1.41,-1.67 h -0.26 c -1.35,0.43 -1.83,3.61 -1.83,3.61 h -0.62 v -7.57 l -1.49,-0.41 v -3.36 l -0.42,-0.76 h -0.18 v 1.3 c -0.14,0.35 -1.23,0.66 -1.23,0.66 -0.38,0.15 -0.3,0.99 -0.3,0.99 0,3.35 0,8.72 0,8.72 v 5.35 0.02 0.01 7.22 h -1.27 v -6.58 l -0.49,-0.72 v -5.67 h -0.67 v -0.38 h -0.86 v -2.45 h -3.92 v 1.62 h -1.29 v 6.89 l -1.23,1.08 v -3.38 h 0.24 v -3.92 h -0.67 v -0.96 h -1.17 v -1.34 h -1.44 l -0.19,-3.51 -0.19,3.51 h -0.03 v 3.7 h -1.84 v 1.21 h -0.74 v 4.23 h -1.1 v 4.15 h -2.21 v -3.71 h -1.15 v -0.67 h -2.48 v 0.67 h -1.29 v 0.91 h -0.69 v 0.61 h 0.28 v 3.83 l -1.52,-0.02 v -0.94 h -1.56 v 0.45 h -1.700004 v -0.45 h -1.1 v -0.44 h 0.64 v -0.88 h -0.64 v -0.17 h -1.01 v -0.57 h -1.93 v -0.24 h -1.15 v -0.58 h -0.92 v 0.58 h -1.56 v 0.98 h -1.85 v -2.5 h -1.06 v -1.15 h -0.35 v -0.44 c 0,-1.16 -1,-2.14 -2.39,-2.53 v -0.58 h -0.3 v -1.59 h -0.3 v -0.95 h -0.35 l -0.34,-1.59 -0.34,1.59 h -0.35 v 0.95 h -0.3 v 1.59 h -0.3 v 0.58 c -1.39,0.38 -2.39,1.37 -2.39,2.53 v 0.44 h -0.35 v 1.15 h -1.06 v 3.7 h -1.46 v -2.55 l -1.38,-2.29 -1.38,2.29 v 2.28 c -0.09,0.12 -0.17,0.25 -0.27,0.32 -0.37,0.28 -0.34,0.27 -0.42,0.64 -0.1,0.46 -0.44,0.36 -0.91,0.58 -0.04,0.02 -0.08,0.04 -0.12,0.07 l -0.85,-0.25 v -4.19 h -0.47 l -0.51,-4.42 -0.52,4.42 h -0.52 v 1.89 h -1.01 v -0.15 c 0,-0.43 -0.39,-0.78 -0.92,-0.89 v -2.03 h -0.78 v 2.05 c -0.48,0.13 -0.83,0.47 -0.83,0.87 v 0.65 l -1.42,-0.16 v -2.71 h -2.53 v -2.7 h -2.85 v 3.18 h -2.45 v -4.27 h -0.18 v -0.48 h -1.75 v -0.48 h -1.75 v 0.65 h -1.98 v 0.5 h -0.74 v 0.69 h -0.46 v 0.17 h 0.46 v 0.26 h -0.46 v 0.17 h 0.46 v 0.27 h -0.46 v 0.17 h 0.46 v 0.27 h -0.46 v 0.17 h 0.46 v 0.27 h -0.46 v 0.17 h 0.46 v 0.27 h -0.46 v 0.17 h 0.46 v 0.26 h -0.46 v 0.17 h 0.46 v 0.27 h -0.46 v 0.17 h 0.46 v 0.27 h -0.46 v 0.17 h 0.46 v 0.27 h -0.46 v 0.17 h 0.46 v 0.26 h -0.46 v 0.13 h -1.93 v -0.06 h 0.27 v -0.17 h -0.27 v -0.27 h 0.27 v -0.17 h -0.27 v -0.27 h 0.27 v -0.17 h -0.27 v -0.27 h 0.27 v -0.17 h -0.27 v -0.27 h 0.27 v -0.17 h -0.27 v -0.27 h 0.27 v -0.17 h -0.27 v -0.27 h 0.27 v -0.17 h -0.27 v -0.27 h 0.27 v -0.17 h -0.27 v -0.26 h 0.27 v -0.17 h -0.27 v -0.27 h 0.27 v -0.17 h -0.27 v -0.27 h 0.27 v -0.17 h -0.27 v -0.27 h 0.27 v -0.17 h -0.27 v -0.27 h 0.27 v -0.17 h -0.27 v -0.27 h 0.27 v -0.17 h -0.27 v -0.26 h 0.27 v -0.17 h -0.27 v -0.64 h -1.38 v -0.3 h -1.6 l -0.98,0.72 v 0.49 h -1.2 v 4.49 h -2.05 l -1.86,-1.23 -0.11,0.08 v -0.17 -0.95 -2.63 h -1.56 v -0.51 h -0.28 v -0.27 -0.24 h -0.69 v -0.37 h -1.61 v 0.37 h -0.51 v 0.24 h -0.92 v 0.61 h -0.5 v 0.17 h 0.5 v 0.23 h -0.5 v 0.17 h 0.5 v 0.22 h -0.5 v 0.17 h 0.5 v 0.23 h -0.5 v 0.17 h 0.5 v 0.23 h -0.5 v 0.17 h 0.5 v 0.23 h -0.5 v 0.17 h 0.5 v 0.23 h -0.5 v 0.18 h 0.5 v 0.27 h -3.02 v -7.07 l -1.11,-0.06 v -0.99 c 0.16,-1.69 -2.31,-2.43 -2.31,-2.43 v -0.45 h -0.16 v -1.22 h -0.27 v -0.78 h -0.27 v -1.21 -0.02 h -0.34 v 0.02 1.21 0.02 h -0.27 v 0.78 h -0.26 v 1.23 h -0.16 v 0.45 c 0,0 -2.46,0.74 -2.3,2.43 v 0.99 l -1.11,0.06 v 4.57 c -0.33,0 -0.58,0 -0.77,0 v -3.11 h -0.24 l 0.02,-0.01 -0.23,-1.07 -0.15,0.99 h -0.59 l -0.22,-0.99 -0.21,0.8 h -0.03 v -1.81 h -0.03 v 1.81 h -0.03 l -0.2,-0.8 -0.22,0.99 h -0.59 l -0.15,-0.99 -0.22,1.07 0.01,0.01 h -0.07 v 2.53 h -0.37 v -2.38 h -0.07 l -0.21,-1 -0.15,0.99 h -0.59 l -0.22,-0.99 -0.2,0.8 h -0.09 l -0.21,-0.8 -0.22,0.99 h -0.59 l -0.15,-0.99 -0.21,1 h -0.04 v 2.49 h -0.42 v -0.26 h -0.07 l -0.18,-0.92 -0.19,0.92 h -0.08 v 0.26 h -0.76 v -4.35 l 0.19,-0.25 v -2.95 h -0.22 v -0.25 l 0.18,-0.07 -0.29,-0.22 v -0.25 l 0.17,-0.1 c -0.81,-0.45 -1.21,-1.59 -1.21,-1.59 v -0.17 h -0.16 v -0.87 l 0.18,-0.1 c -1.2,-1.6 -1.34,-3.07 -1.34,-3.07 h 0.11 v -0.14 h -0.13 l -0.08,-1.01 -0.08,1.01 h -0.13 v 0.14 h 0.11 c 0,0 -0.13,1.48 -1.33,3.07 l 0.18,0.1 v 0.87 h -0.16 v 0.17 c 0,0 -0.41,1.14 -1.21,1.59 l 0.17,0.1 v 0.25 l -0.29,0.22 0.18,0.07 v 0.25 h -0.22 v 2.95 l 0.19,0.25 v 3.04 l -0.31,-0.08 -1.27,0.46 h -0.39 v 0.37 h -1.79 l -0.18,0.28 h -0.81 l -0.15,-0.44 -0.36,0.75 -0.1,0.25 h -0.19 v -0.41 h -0.67 v 0.71 h -0.62 v -0.21 c -0.03,0 -0.21,-0.64 -0.21,-0.64 0,0 -0.16,0.63 -0.21,0.64 v 0.21 h -0.97 v -0.39 c -0.03,0 -0.21,-0.64 -0.21,-0.64 0,0 -0.15,0.63 -0.21,0.64 v 0.39 l -0.87,-0.05 v -0.38 h -0.01 l -0.44,-0.65 v -0.24 h -0.08 v 0.24 l -0.44,0.65 h -0.01 v 0.32 l -0.64,-0.04 v -0.34 c -0.03,0 -0.21,-0.64 -0.21,-0.64 0,0 -0.16,0.63 -0.21,0.64 v 0.31 l -0.73,-0.04 -0.01,0.01 v -1.46 h 0.25 v -0.06 h -0.18 v -0.66 h -0.23 v 0.29 h -0.02 c -0.17,-0.09 -0.13,-0.67 -0.12,-1.36 l -0.1,0.07 c -0.04,-0.01 -0.07,-0.05 -0.07,-0.05 -0.13,-0.15 -0.06,-0.57 -0.06,-0.7 h -0.19 v -0.46 h -0.03 l -0.13,-0.4 -0.13,0.4 h -0.03 v 0.46 h -0.19 c 0,0.14 0.08,0.64 -0.12,0.74 h -0.02 l -0.09,-0.06 c 0.01,0.69 0.05,1.28 -0.12,1.36 h -0.11 v -0.31 h -0.16 v -0.9 h -0.08 v -0.34 h 0.09 l -0.27,-0.6 -0.02,-0.22 h -0.04 l -0.01,0.22 -0.27,0.6 h 0.09 v 0.34 h -0.12 v 0.87 h -0.3 l -0.24,-0.55 v 0 l -0.06,-0.32 -0.07,0.32 h -0.35 v -0.35 h -0.01 l -0.08,-0.28 -0.08,0.28 v 0 0.21 h -0.1 v -0.04 h -0.08 v -0.34 h 0.09 l -0.27,-0.6 -0.02,-0.22 h -0.04 l -0.01,0.22 -0.27,0.6 h 0.09 v 0.34 h -0.12 v 0.19 h -0.31 v -0.51 h -0.08 v -0.34 h 0.09 l -0.26,-0.6 -0.02,-0.22 h -0.04 l -0.01,0.22 -0.26,0.6 h 0.09 v 0.34 h -0.12 v 0.19 h -0.23 v 0.16 h -0.4 l -0.04,-0.21 -0.04,0.21 h -0.11 v 0.17 l -0.18,0.48 h -0.32 v -0.87 h -0.08 v -0.34 h 0.09 l -0.27,-0.6 -0.02,-0.22 h -0.05 l -0.01,0.22 -0.27,0.6 h 0.09 v 0.34 h -0.12 v 0.9 h -0.01 v 0.15 h -0.1 l -0.24,-0.55 h -0.03 l -0.06,-0.29 -0.06,0.29 h -0.46 v -0.21 h -0.24 v -0.16 h 0.09 l -0.27,-0.6 -0.02,-0.22 h -0.04 l -0.01,0.22 -0.27,0.6 h 0.09 v 0.33 h -0.12 v 0.04 h -0.43 v -0.36 h -0.08 v -0.33 h 0.09 l -0.27,-0.6 -0.02,-0.22 h -0.04 l -0.01,0.22 -0.27,0.6 h 0.09 v 0.33 h -0.12 v 0.36 h -0.57 l -0.06,-0.3 -0.06,0.3 -0.22,0.56 h -0.24 v -0.69 h -0.08 v -0.45 h 0.09 l -0.26,-0.6 -0.02,-0.22 h -0.04 l -0.01,0.22 -0.27,0.6 h 0.09 v 0.45 h -0.12 v 0.9 h -0.01 v 0.09 0.32 1.41 h -1.22 v -0.52 h 0.13 v -0.08 h -0.13 v -0.22 h -0.74 v 0.22 h -0.09 v 0.08 h 0.09 v 0.57 h -0.7 v -0.32 h -0.12 v -0.18 h 0.07 v -0.32 h -0.15 v -0.49 h -0.11 v -0.31 h -0.01 v -1.55 h -0.28 v -0.88 h -0.06 v -0.61 h -0.14 l -0.07,-0.23 v 0.75 l -0.24,-0.21 v -1.95 h -0.21 v -0.25 0 -0.25 l -0.05,0.13 h -0.18 v -0.38 h -0.15 l -0.09,-0.72 h 0.04 v -0.12 h -0.05 l -0.21,-1.63 -0.21,1.63 h -0.05 v 0.12 h 0.04 l -0.09,0.72 h -0.15 v 0.38 h -0.19 l -0.05,-0.13 v 0.25 0 0.25 h -0.21 v 1.49 h -0.17 v 0.55 l -0.2,0.15 v -0.53 h -0.21 v 0.59 h -0.14 v 0.88 h -0.11 v 0.44 h -0.17 v -1.15 h -0.05 v 1.15 h -0.02 v -0.01 l -0.25,-0.32 v -0.35 h -0.05 v 0.35 l -0.24,0.33 h 0.1 v 0.33 h -0.13 v 0.78 h -0.32 v -0.56 0 -0.2 h -0.08 v 0.2 h -0.3 l -0.13,-0.08 h -0.11 v -0.89 h -0.03 v -0.2 h -0.02 v 0.2 h -0.12 l -0.18,-0.35 v -0.32 h -0.02 v 0.32 l -0.18,0.35 h -0.12 v -0.2 h -0.02 v 0.2 h -0.03 v 0.89 h -0.23 v -0.26 h -0.08 v -0.33 h 0.09 l -0.27,-0.6 -0.02,-0.22 h -0.04 l -0.01,0.22 -0.27,0.6 h 0.09 v 0.33 h -0.12 v 0.26 h -0.38 l -0.19,0.52 h -0.15 v -0.69 h -0.08 v -0.34 h 0.09 l -0.27,-0.6 -0.02,-0.22 h -0.04 l -0.01,0.22 -0.27,0.6 h 0.09 v 0.34 h -0.12 v 0.9 h -0.01 v 1.17 h -1.11 v -7.15 0 -1.15 h -0.16 v -0.44 h 0.07 v -0.3 h -0.01 l -0.41,-0.61 v -0.4 h 0.02 c 0.05,0 0.08,-0.03 0.08,-0.06 0,-0.03 -0.04,-0.06 -0.08,-0.06 h -0.02 v -0.11 h -0.03 v 0.11 h -0.02 c -0.05,0 -0.08,0.03 -0.08,0.06 0,0.03 0.04,0.06 0.08,0.06 h 0.02 v 0.4 l -0.41,0.61 h -0.01 v 0.3 h 0.1 v 0.44 h -0.19 v 1.15 h -0.67 v -0.42 h -0.42 v -0.37 h -0.16 v -0.44 h 0.07 v -0.3 h -0.01 l -0.41,-0.61 v -0.4 h 0.02 c 0.05,0 0.08,-0.03 0.08,-0.06 0,-0.04 -0.04,-0.06 -0.08,-0.06 h -0.02 v -0.11 h -0.03 v 0.11 h -0.02 c -0.05,0 -0.08,0.03 -0.08,0.06 0,0.03 0.04,0.06 0.08,0.06 h 0.02 v 0.4 l -0.34,0.51 -0.36,-0.53 v -2.85 c 0.09,0.07 0.28,0.21 0.46,0.22 0,0 0,-0.32 0.08,-0.55 0,0 -0.19,-0.33 -0.55,-0.51 v -0.1 c 0.04,-0.02 0.07,-0.05 0.07,-0.09 0,-0.05 -0.05,-0.09 -0.12,-0.09 -0.07,0 -0.12,0.04 -0.12,0.09 0,0.04 0.03,0.07 0.07,0.09 v 3.79 l -0.25,0.37 v -0.16 h 0.07 v -0.3 h -0.01 l -0.41,-0.61 v -0.4 h 0.02 c 0.05,0 0.09,-0.03 0.09,-0.06 0,-0.03 -0.04,-0.06 -0.09,-0.06 h -0.02 v -0.11 h -0.03 v 0.11 h -0.02 c -0.05,0 -0.08,0.03 -0.08,0.06 0,0.03 0.04,0.06 0.08,0.06 h 0.02 v 0.4 l -0.41,0.61 h -0.01 v 0.3 h 0.1 v 0.44 h -0.19 v 1.08 h -0.65 v 0.42 h -0.62 v -1.2 h -0.16 v -0.44 h 0.07 v -0.3 h -0.01 l -0.41,-0.61 v -0.4 h 0.04 c 0.05,0 0.09,-0.03 0.09,-0.06 0,-0.04 -0.04,-0.06 -0.09,-0.06 h -0.02 v -0.11 h -0.03 v 0.11 h -0.02 c -0.05,0 -0.08,0.03 -0.08,0.06 0,0.03 0.04,0.06 0.08,0.06 h 0.02 v 0.4 l -0.41,0.61 h -0.01 v 0.3 h 0.1 v 0.44 h -0.19 v 1.2 0.12 7.78 h -0.01 v 2.8 h -1.48 v -1.25 h -0.71 v -0.04 -3.09 l 0.1,-0.42 v -0.06 h -0.02 v -1.11 h 0.05 v -0.06 h -0.06 v -0.68 l 0.03,-0.02 v -0.04 l -0.32,-0.76 v -0.21 h 0.12 v -0.06 h -0.12 v -0.16 h -0.1 v 0.16 h -0.11 v 0.06 h 0.1 v 0.21 l -0.07,0.16 -0.04,-0.17 v -0.05 l 0.1,-0.01 -0.01,-0.06 h -0.11 v -0.18 h -0.08 v 0.18 h -0.11 v 0.05 h 0.09 v 0.22 l -0.08,0.25 h -0.17 l -0.41,-1.14 v -0.63 h -0.07 v 0.6 0.02 l -0.45,1.18 h -0.12 l -0.19,-0.48 v -0.26 h 0.12 v -0.04 h -0.12 v -0.07 h -0.07 v 0.07 h -0.11 v 0.04 h 0.11 v 0.08 h -0.1 v -0.07 h -0.1 v 0.07 h -0.1 v 0.09 h 0.1 v 0.12 l -0.26,0.84 v 0.09 l 0.04,0.03 v 0.62 h -0.1 v 0.05 l 0.05,0.1 h -5.25 v -0.2 h -0.18 v 0.03 h -0.01 v 0.04 h -0.21 v -0.05 h -0.12 v -0.04 h 0.05 v 0 -0.04 0 -0.01 h -0.06 v -0.07 h -0.01 -0.02 -0.01 v 0.07 h -0.06 v 0.01 0 0.04 0 h 0.05 v 0.04 h -0.12 v 0.05 h -0.21 v -0.04 h -0.01 v -0.03 h -0.18 v 0.2 h -5.25 l 0.05,-0.1 v -0.05 h -0.1 v -0.62 l 0.04,-0.03 v -0.09 l -0.26,-0.84 v -0.14 h 0.11 v -0.06 h -0.11 v -0.07 h -0.08 v -0.05 h -0.12 v -0.08 h -0.07 v 0.08 h -0.11 v 0.06 h 0.11 v 0.24 l -0.19,0.48 h -0.12 l -0.45,-1.18 v -0.02 -0.6 h -0.07 v 0.63 l -0.41,1.14 h -0.17 l -0.08,-0.25 v -0.22 l -0.01,-0.05 v -0.04 h 0.11 v -0.06 h -0.12 v -0.08 h -0.08 v 0.08 h -0.03 v -0.05 h -0.1 v -0.14 h -0.1 v 0.14 h -0.11 v 0.07 h 0.11 v 0.01 0.21 l -0.32,0.76 v 0.04 l 0.03,0.02 v 0.68 h -0.06 v 0.06 h 0.05 v 1.11 h -0.03 v 0.06 l 0.1,0.42 v 3.09 0.04 h -0.71 v 1.25 h -1.11 v -1.17 h -0.87 v -1.14 h -2.22 v 1.02 h -0.52 -0.67 v 0.17 h -0.28 v -0.38 h -0.24 v -0.23 -0.34 h -0.23 v -0.35 h -0.54 v -0.24 c -0.02,-0.5 -1.3,-0.96 -1.98,-0.74 h -1.38 c 0,0 -0.03,-0.82 -0.03,-1.25 0,0 -0.05,-0.78 0.5,-0.78 l -1.24,-0.56 h -1.3 l -4.79,0.25 -0.48,0.37 v 3 h -0.16 v 0.39 h -0.18 v 0.43 h -0.19 v 0.29 l 0.07,3.24 v 7.78 h 200.550004 v 0 h 15.97 v -4.25 -2.15 -11.83 h -3.29 z m -194.220004,0.8 -0.01,0.07 v 0.05 l -0.04,0.17 -0.07,-0.16 v -0.21 -0.01 h 0.01 v 0.05 h 0.12 v 0.04 z m 1.76,0.13 -0.1,0.07 v -0.14 -0.09 h 0.1 z m 0,-0.23 h -0.1 v -0.05 h 0.1 z m 11.47,7.76 h -10.58 v -0.38 c 0.4,-0.17 0.97,-0.3 1.63,-0.39 0.93,-0.13 2.04,-0.19 3.18,-0.19 1.33,0 2.69,0.08 3.81,0.23 0.46,0.06 0.87,0.13 1.22,0.21 v 0.01 l 0.01,-0.01 c 0.08,0.02 0.15,0.04 0.22,0.05 0.2,0.05 0.38,0.11 0.52,0.17 v 0.3 z m -10,-0.66 c -0.22,0.05 -0.41,0.11 -0.58,0.18 v -0.65 z m -0.5,-0.48 h 0.5 l -0.01,0.39 z m 1.08,0.36 c -0.18,0.03 -0.35,0.07 -0.52,0.11 l 0.01,-0.46 h 0.06 z m -0.35,-0.36 h 0.35 v 0.28 z m 0.91,0.27 c -0.04,0 -0.08,0.01 -0.12,0.02 -0.12,0.02 -0.24,0.04 -0.36,0.05 v -0.34 h 0.09 z m -0.28,-0.27 h 0.31 v 0.21 z m 6.72,0.23 -0.26,-0.23 h 0.62 z m 0.48,-0.23 h 0.02 v 0.33 c -0.15,-0.02 -0.3,-0.04 -0.45,-0.06 z m -0.54,0.26 c -0.21,-0.02 -0.43,-0.04 -0.65,-0.06 l 0.27,-0.2 h 0.08 z m -0.68,-0.11 -0.2,-0.15 h 0.39 z m -0.04,0.05 c -0.82,-0.06 -1.7,-0.1 -2.58,-0.1 -0.58,0 -1.15,0.01 -1.7,0.05 l 0.19,-0.14 h 3.83 z m -4.32,-0.1 -0.12,-0.09 h 0.25 z m -0.03,0.05 c -0.22,0.01 -0.43,0.03 -0.64,0.05 l 0.22,-0.19 h 0.22 z m -0.71,0.02 -0.27,-0.17 h 0.47 z m -0.06,0.04 c -0.15,0.01 -0.29,0.03 -0.44,0.05 v -0.25 h 0.11 z m 6.47,0.06 v -0.27 h 0.39 z m 0.5,-0.27 h 0.01 v 0.41 c -0.16,-0.03 -0.33,-0.05 -0.5,-0.08 z m 0.6,0.01 v 0.52 c -0.16,-0.04 -0.34,-0.07 -0.52,-0.1 z m -0.51,0.33 v -0.34 h 0.42 z m 1.26,0.4 c -0.14,-0.05 -0.3,-0.1 -0.48,-0.15 -0.05,-0.01 -0.11,-0.03 -0.17,-0.04 l 0.65,-0.55 v 0 z m -0.67,-0.25 v -0.48 h 0.57 z m 1.28,-0.67 h -0.6 -7.12 -0.04 -1.68 -0.01 v 0 h -0.57 l -0.01,-0.01 v 0.01 h -0.58 -0.01 v 0 h -0.61 -0.6 v -3.02 l 0.09,-0.27 v -0.58 h 11.64 v 0.58 l 0.09,0.27 v 3.02 z m 0.36,-6.29 v 0.14 l -0.1,-0.07 v -0.14 h 0.1 z m 4.67,-4.67 h 0.34 v 0.34 h -0.34 z m 0.05,1.36 c 0,0.03 -0.03,0.05 -0.06,0.05 -0.03,0 -0.06,-0.02 -0.06,-0.05 v -0.32 c 0,-0.03 0.03,-0.05 0.06,-0.05 0.03,0 0.06,0.02 0.06,0.05 z m 0.18,0 c 0,0.03 -0.03,0.05 -0.06,0.05 -0.03,0 -0.06,-0.02 -0.06,-0.05 v -0.32 c 0,-0.03 0.03,-0.05 0.06,-0.05 0.03,0 0.06,0.02 0.06,0.05 z m 0.18,0 c 0,0.03 -0.03,0.05 -0.06,0.05 -0.03,0 -0.06,-0.02 -0.06,-0.05 v -0.32 c 0,-0.03 0.03,-0.05 0.06,-0.05 0.03,0 0.06,0.02 0.06,0.05 z m 1.92,-1.66 h 0.34 v 0.34 h -0.34 z m 0.04,1.35 c 0,0.03 -0.03,0.05 -0.06,0.05 -0.03,0 -0.06,-0.02 -0.06,-0.05 v -0.32 c 0,-0.03 0.03,-0.05 0.06,-0.05 0.03,0 0.06,0.02 0.06,0.05 z m 0.18,0 c 0,0.03 -0.03,0.05 -0.06,0.05 -0.03,0 -0.06,-0.02 -0.06,-0.05 v -0.32 c 0,-0.03 0.03,-0.05 0.06,-0.05 0.03,0 0.06,0.02 0.06,0.05 z m 0.08,-0.32 v 0.36 l -0.02,-0.04 v -0.32 c 0,-0.03 0.03,-0.05 0.06,-0.05 0.03,0 0.06,0.02 0.06,0.04 h -0.1 z m 0.95,0 h -0.06 v -0.36 h 0.06 z m 0.51,0.02 h -0.34 v -0.34 h 0.34 z m 1.81,-0.71 h 0.34 v 0.34 h -0.34 z m 0.05,1.37 c 0,0.03 -0.03,0.05 -0.06,0.05 -0.03,0 -0.06,-0.02 -0.06,-0.05 v -0.32 c 0,-0.03 0.03,-0.05 0.06,-0.05 0.03,0 0.06,0.02 0.06,0.05 z m 0.18,0 c 0,0.03 -0.03,0.05 -0.06,0.05 -0.03,0 -0.06,-0.02 -0.06,-0.05 v -0.32 c 0,-0.03 0.03,-0.05 0.06,-0.05 0.03,0 0.06,0.02 0.06,0.05 z m 0.18,0 c 0,0.03 -0.03,0.05 -0.06,0.05 -0.03,0 -0.06,-0.02 -0.06,-0.05 v -0.32 c 0,-0.03 0.03,-0.05 0.06,-0.05 0.03,0 0.06,0.02 0.06,0.05 z m 7.86,2.63 c 0,0.03 -0.04,0.06 -0.08,0.06 -0.05,0 -0.09,-0.03 -0.09,-0.06 v -0.86 c 0,-0.03 0.04,-0.06 0.09,-0.06 0.05,0 0.08,0.03 0.08,0.06 z m 1.08,1.02 h -0.08 z m 3.8,1.18 c 0,-0.03 0.03,-0.05 0.07,-0.05 0.04,0 0.07,0.02 0.07,0.05 v 0.16 c 0,0.03 -0.03,0.05 -0.07,0.05 -0.04,0 -0.07,-0.02 -0.07,-0.05 z m 0.15,0.91 c 0,0.04 -0.04,0.06 -0.09,0.06 -0.05,0 -0.09,-0.03 -0.09,-0.06 v -0.33 c 0,-0.04 0.04,-0.07 0.09,-0.07 0.05,0 0.09,0.03 0.09,0.07 z m 0.48,0.19 h -0.1 v 0 z m 1.28,-1.16 c 0,0.03 -0.03,0.05 -0.06,0.05 -0.04,0 -0.07,-0.02 -0.07,-0.05 v -0.16 c 0,-0.03 0.03,-0.05 0.07,-0.05 0.04,0 0.06,0.02 0.06,0.05 z m 1.06,0.3 h -0.13 v -0.14 c 0,-0.03 0.03,-0.05 0.07,-0.05 0.04,0 0.07,0.02 0.07,0.05 v 0.14 z m 3.58,-0.72 c 0,-0.03 0.03,-0.05 0.07,-0.05 0.03,0 0.07,0.02 0.07,0.05 v 0.16 c 0,0.03 -0.03,0.05 -0.07,0.05 -0.04,0 -0.07,-0.02 -0.07,-0.05 z m 0.14,0.61 h -0.18 v -0.04 c 0,-0.04 0.04,-0.07 0.09,-0.07 0.05,0 0.09,0.03 0.09,0.07 z m 0.93,-0.13 c 0,0.03 -0.03,0.05 -0.07,0.05 -0.04,0 -0.07,-0.02 -0.07,-0.05 v -0.16 c 0,-0.03 0.03,-0.05 0.07,-0.05 0.04,0 0.07,0.02 0.07,0.05 z m 1.8,-0.29 c 0,-0.03 0.03,-0.05 0.07,-0.05 0.04,0 0.07,0.02 0.07,0.05 v 0.16 c 0,0.03 -0.03,0.05 -0.07,0.05 -0.04,0 -0.07,-0.02 -0.07,-0.05 z m 0.15,0.9 c 0,0.04 -0.04,0.07 -0.09,0.07 -0.05,0 -0.09,-0.03 -0.09,-0.07 v -0.33 c 0,-0.04 0.04,-0.07 0.09,-0.07 0.05,0 0.09,0.03 0.09,0.07 z"
               class="st16"
               inkscape:connector-curvature="0"
               style="fill:#4d4d4d;stroke:#000000;stroke-width:0.72494698;stroke-miterlimit:4;stroke-dasharray:none;stroke-opacity:1" />
          </g>
        </g>
      </g>
      <rect
         style="fill:#4d4d4d;stroke:#000000;stroke-width:0.14757484;stroke-linejoin:round;stroke-opacity:1"
         x="102.57725"
         y="218.68208"
         class="st16"
         width="36.846527"
         height="13.512905"
         id="rect1318" />
      <path
         style="fill:#666666;stroke:#000000;stroke-width:0.14757484;stroke-linejoin:round;stroke-opacity:1"
         inkscape:connector-curvature="0"
         class="st0"
         d="m 139.3803,231.26076 c 0,1.01756 -0.82495,1.84266 -1.84233,1.84266 H 104.3761 c -1.01736,0 -1.84232,-0.8251 -1.84232,-1.84266 v -1.84268 c 0,-1.01756 0.82496,-1.84266 1.84232,-1.84266 h 33.16187 c 1.01738,0 1.84233,0.8251 1.84233,1.84266 z"
         id="path1320" />
      <path
         inkscape:connector-curvature="0"
         id="rect1322"
         d="m 102.57731,231.78564 v 5.73279 h 0.15835 c -0.0976,0.1087 -0.15835,0.25123 -0.15835,0.40923 0,0.33987 0.27423,0.61414 0.61403,0.61414 h 3.07074 c 0.33981,0 0.61402,-0.27427 0.61402,-0.61414 0,-0.158 -0.0608,-0.30053 -0.15833,-0.40923 h 28.56553 c -0.0975,0.1087 -0.15834,0.25123 -0.15834,0.40923 0,0.33987 0.27421,0.61414 0.61402,0.61414 h 3.07074 c 0.33981,0 0.61403,-0.27427 0.61403,-0.61414 0,-0.158 -0.0608,-0.30053 -0.15834,-0.40923 h 0.15834 v -5.73279 z"
         style="fill:#4d4d4d;stroke:#000000;stroke-width:0.14757483;stroke-linejoin:round;stroke-opacity:1" />
      <polygon
         id="polygon1324"
         points="108,588.42 159.97,559 161.61,559 108,589.44 "
         class="st14"
         style="fill:#ffff66;stroke-width:0.72085506"
         transform="matrix(0.2047029,0,0,0.20474099,80.469332,104.23185)" />
      <polygon
         id="polygon1328"
         points="108,602.49 108,601.48 288,559.44 288,560.51 "
         class="st14"
         style="fill:#ffff66;stroke-width:0.72085506"
         transform="matrix(0.2047029,0,0,0.20474099,80.469332,104.23185)" />
      <polygon
         id="polygon1332"
         points="288,602.6 288,603.59 108,560.05 108,559 "
         class="st14"
         style="fill:#ffff66;stroke-width:0.72085506"
         transform="matrix(0.2047029,0,0,0.20474099,80.469332,104.23185)" />
      <path
         style="fill:#ffff66;stroke:#000000;stroke-width:0.14757484;stroke-opacity:1"
         inkscape:connector-curvature="0"
         class="st14"
         d="m 120.7958,226.29843 c 0,0.65517 -0.53221,1.18749 -1.18727,1.18749 h -12.77347 c -0.65504,0 -1.18728,-0.53232 -1.18728,-1.18749 v -0.084 c 0,-0.65517 0.53224,-1.18749 1.18728,-1.18749 h 12.77347 c 0.65506,0 1.18727,0.53232 1.18727,1.18749 z"
         id="path1336" />
      <path
         style="fill:#ffff66;stroke:#000000;stroke-width:0.14757484;stroke-opacity:1"
         inkscape:connector-curvature="0"
         class="st14"
         d="m 136.35324,226.29843 c 0,0.65517 -0.53224,1.18749 -1.18729,1.18749 h -12.77346 c -0.65504,0 -1.18729,-0.53232 -1.18729,-1.18749 v -0.084 c 0,-0.65517 0.53225,-1.18749 1.18729,-1.18749 H 135.168 c 0.65505,0 1.18728,0.53232 1.18728,1.18749 v 0.084 z"
         id="path1338" />
      <g
         style="stroke:#000000;stroke-width:0.47763026;stroke-linecap:round;stroke-linejoin:round;stroke-miterlimit:4;stroke-dasharray:none;stroke-opacity:1"
         transform="matrix(0.30943077,0,0,0.30948833,159.99372,60.898607)"
         id="g1372">
        <g
           style="stroke:#000000;stroke-width:0.47763026;stroke-linecap:round;stroke-linejoin:round;stroke-miterlimit:4;stroke-dasharray:none;stroke-opacity:1"
           id="g1368">
          <rect
             id="rect1360"
             height="41"
             width="30"
             class="st14"
             y="533.17761"
             x="-54.634617"
             style="fill:#ffff66;stroke:#000000;stroke-width:0.47763026;stroke-linecap:round;stroke-linejoin:round;stroke-miterlimit:4;stroke-dasharray:none;stroke-opacity:1" />
          <g
             style="stroke:#000000;stroke-width:0.47763026;stroke-linecap:round;stroke-linejoin:round;stroke-miterlimit:4;stroke-dasharray:none;stroke-opacity:1"
             id="g1366">
            <rect
               id="rect1362"
               height="8"
               width="26"
               class="st22"
               y="536.17761"
               x="-52.634617"
               style="clip-rule:evenodd;fill:#4d4d4d;fill-rule:evenodd;stroke:#000000;stroke-width:0.47763026;stroke-linecap:round;stroke-linejoin:round;stroke-miterlimit:4;stroke-dasharray:none;stroke-opacity:1" />
            <path
               id="path1364"
               d="m -38.474616,540.19764 c 0,0.54 -0.43,0.97 -0.97,0.97 -0.54,0 -0.97,-0.43 -0.97,-0.97 0,-0.54 0.43,-0.97 0.97,-0.97 0.54,0 0.97,0.43 0.97,0.97 z"
               class="st17"
               inkscape:connector-curvature="0"
               style="clip-rule:evenodd;fill:#ffff66;fill-rule:evenodd;stroke:#000000;stroke-width:0.47763026;stroke-linecap:round;stroke-linejoin:round;stroke-miterlimit:4;stroke-dasharray:none;stroke-opacity:1" />
          </g>
        </g>
        <path
           id="path1370"
           d="m -37.734616,522.40764 -2.28,0.03 -2.3,-0.03 c -4.46,3.5 -6.05,6.92 -3.11,10.22 h 5.32 v 0 h 5.49 c 2.93,-3.3 1.34,-6.72 -3.12,-10.22 z"
           class="st18"
           inkscape:connector-curvature="0"
           style="clip-rule:evenodd;fill:#ffffff;fill-rule:evenodd;stroke:#000000;stroke-width:0.47763026;stroke-linecap:round;stroke-linejoin:round;stroke-miterlimit:4;stroke-dasharray:none;stroke-opacity:1" />
      </g>
      <g
         transform="matrix(0.18078543,0,0,0.20508311,19.543501,151.52706)"
         id="g1410"
         style="stroke:#000000;stroke-width:0.76762491;stroke-linejoin:round;stroke-miterlimit:4;stroke-dasharray:none;stroke-opacity:1">
        <path
           id="path1378"
           d="M 448,481 V 657 H 750 V 481 Z m 99,110 h -88 v -29 h 88 z m 0,-36 h -88 v -29 h 88 z m 0,-36 h -88 v -29 h 88 z m 96,72 h -88 v -65 h 88 z m 0,-72 h -88 v -29 h 88 z m 96,72 h -88 v -29 h 88 z m 0,-36 h -88 v -29 h 88 z m 0,-36 h -88 v -29 h 88 z"
           class="st13"
           inkscape:connector-curvature="0"
           style="fill:#ffffff;stroke:#000000;stroke-width:0.76762491;stroke-linejoin:round;stroke-miterlimit:4;stroke-dasharray:none;stroke-opacity:1" />
        <g
           id="g1384"
           style="stroke:#000000;stroke-width:0.76762491;stroke-linejoin:round;stroke-miterlimit:4;stroke-dasharray:none;stroke-opacity:1">
          <path
             id="path1380"
             d="m 638,581.93 c 0,0.72 -1.07,1.07 -1.84,1.07 H 563.8 c -0.77,0 -1.81,-0.35 -1.81,-1.07 v -44.05 c 0,-0.72 1.04,-0.89 1.81,-0.89 h 72.36 c 0.77,0 1.84,0.17 1.84,0.89 z"
             class="st13"
             inkscape:connector-curvature="0"
             style="fill:#ffffff;stroke:#000000;stroke-width:0.76762491;stroke-linejoin:round;stroke-miterlimit:4;stroke-dasharray:none;stroke-opacity:1" />
          <rect
             id="rect1382"
             height="37"
             width="68"
             class="st0"
             y="541"
             x="566"
             style="fill:#666666;stroke:#000000;stroke-width:0.76762491;stroke-linejoin:round;stroke-miterlimit:4;stroke-dasharray:none;stroke-opacity:1" />
        </g>
        <rect
           id="rect1386"
           height="15"
           width="280"
           class="st4"
           y="602"
           x="459"
           style="fill:#00a99d;stroke:#000000;stroke-width:0.76762491;stroke-linejoin:round;stroke-miterlimit:4;stroke-dasharray:none;stroke-opacity:1" />
        <path
           id="path1388"
           d="m 705,609.5 c 0,-0.83 -0.67,-1.5 -1.5,-1.5 h -17 c -0.83,0 -1.5,0.67 -1.5,1.5 v 0 c 0,0.83 0.67,1.5 1.5,1.5 h 17 c 0.83,0 1.5,-0.67 1.5,-1.5 z"
           class="st13"
           inkscape:connector-curvature="0"
           style="fill:#ffffff;stroke:#000000;stroke-width:0.76762491;stroke-linejoin:round;stroke-miterlimit:4;stroke-dasharray:none;stroke-opacity:1" />
        <path
           id="path1390"
           d="m 513,609.5 c 0,-0.83 -0.67,-1.5 -1.5,-1.5 h -17 c -0.83,0 -1.5,0.67 -1.5,1.5 v 0 c 0,0.83 0.67,1.5 1.5,1.5 h 17 c 0.83,0 1.5,-0.67 1.5,-1.5 z"
           class="st13"
           inkscape:connector-curvature="0"
           style="fill:#ffffff;stroke:#000000;stroke-width:0.76762491;stroke-linejoin:round;stroke-miterlimit:4;stroke-dasharray:none;stroke-opacity:1" />
        <g
           id="g1396"
           style="stroke:#000000;stroke-width:0.76762491;stroke-linejoin:round;stroke-miterlimit:4;stroke-dasharray:none;stroke-opacity:1">
          <rect
             id="rect1392"
             height="29"
             width="88"
             class="st4"
             y="621"
             x="459"
             style="fill:#00a99d;stroke:#000000;stroke-width:0.76762491;stroke-linejoin:round;stroke-miterlimit:4;stroke-dasharray:none;stroke-opacity:1" />
          <path
             id="path1394"
             d="m 513,634.5 c 0,-0.83 -0.67,-1.5 -1.5,-1.5 h -17 c -0.83,0 -1.5,0.67 -1.5,1.5 v 0 c 0,0.83 0.67,1.5 1.5,1.5 h 17 c 0.83,0 1.5,-0.67 1.5,-1.5 z"
             class="st13"
             inkscape:connector-curvature="0"
             style="fill:#ffffff;stroke:#000000;stroke-width:0.76762491;stroke-linejoin:round;stroke-miterlimit:4;stroke-dasharray:none;stroke-opacity:1" />
        </g>
        <g
           id="g1402"
           style="stroke:#000000;stroke-width:0.76762491;stroke-linejoin:round;stroke-miterlimit:4;stroke-dasharray:none;stroke-opacity:1">
          <rect
             id="rect1398"
             height="29"
             width="88"
             class="st4"
             y="622"
             x="555"
             style="fill:#00a99d;stroke:#000000;stroke-width:0.76762491;stroke-linejoin:round;stroke-miterlimit:4;stroke-dasharray:none;stroke-opacity:1" />
          <path
             id="path1400"
             d="m 609,635.5 c 0,-0.83 -0.67,-1.5 -1.5,-1.5 h -17 c -0.83,0 -1.5,0.67 -1.5,1.5 v 0 c 0,0.83 0.67,1.5 1.5,1.5 h 17 c 0.83,0 1.5,-0.67 1.5,-1.5 z"
             class="st13"
             inkscape:connector-curvature="0"
             style="fill:#ffffff;stroke:#000000;stroke-width:0.76762491;stroke-linejoin:round;stroke-miterlimit:4;stroke-dasharray:none;stroke-opacity:1" />
        </g>
        <g
           id="g1408"
           style="stroke:#000000;stroke-width:0.76762491;stroke-linejoin:round;stroke-miterlimit:4;stroke-dasharray:none;stroke-opacity:1">
          <rect
             id="rect1404"
             height="29"
             width="88"
             class="st4"
             y="621"
             x="651"
             style="fill:#00a99d;stroke:#000000;stroke-width:0.76762491;stroke-linejoin:round;stroke-miterlimit:4;stroke-dasharray:none;stroke-opacity:1" />
          <path
             id="path1406"
             d="m 705,634.5 c 0,-0.83 -0.67,-1.5 -1.5,-1.5 h -17 c -0.83,0 -1.5,0.67 -1.5,1.5 v 0 c 0,0.83 0.67,1.5 1.5,1.5 h 17 c 0.83,0 1.5,-0.67 1.5,-1.5 z"
             class="st13"
             inkscape:connector-curvature="0"
             style="fill:#ffffff;stroke:#000000;stroke-width:0.76762491;stroke-linejoin:round;stroke-miterlimit:4;stroke-dasharray:none;stroke-opacity:1" />
        </g>
      </g>
      <polygon
         transform="matrix(0.21613567,0,0,0.21627048,-64.885189,169.13654)"
         id="polygon1418"
         points="688,316 746,316 746,228 554,228 554,316 560,316 560,235 688,235 "
         class="st13"
         style="fill:#ffffff;stroke:#000000;stroke-width:1.40083778;stroke-linecap:round;stroke-linejoin:round;stroke-miterlimit:4;stroke-dasharray:none;stroke-opacity:1" />
      <rect
         id="rect1420"
         height="2.1627047"
         width="9.5099707"
         class="st25"
         y="219.96013"
         x="85.329109"
         style="fill:#ffe32c;fill-opacity:0.97647059;stroke:#000000;stroke-width:0.12215015;stroke-linecap:round;stroke-linejoin:round;stroke-miterlimit:4;stroke-dasharray:none;stroke-opacity:1" />
      <rect
         id="rect1422"
         height="2.1627047"
         width="9.5099707"
         class="st25"
         y="222.55539"
         x="85.329109"
         style="fill:#ffe32c;fill-opacity:0.97647059;stroke:#000000;stroke-width:0.12215015;stroke-linecap:round;stroke-linejoin:round;stroke-miterlimit:4;stroke-dasharray:none;stroke-opacity:1" />
      <rect
         id="rect1424"
         height="2.1627047"
         width="9.5099707"
         class="st25"
         y="225.15063"
         x="85.329109"
         style="fill:#ffe32c;fill-opacity:0.97647059;stroke:#000000;stroke-width:0.12215015;stroke-linecap:round;stroke-linejoin:round;stroke-miterlimit:4;stroke-dasharray:none;stroke-opacity:1" />
      <rect
         id="rect1426"
         height="7.785738"
         width="9.5099707"
         class="st25"
         y="227.74586"
         x="85.329109"
         style="fill:#ffe32c;fill-opacity:0.97647059;stroke:#000000;stroke-width:0.12215015;stroke-linecap:round;stroke-linejoin:round;stroke-miterlimit:4;stroke-dasharray:none;stroke-opacity:1" />
      <path
         id="path1428"
         d="m 91.380909,221.04148 c 0,-0.11897 -0.09727,-0.21628 -0.216135,-0.21628 h -2.377492 c -0.118883,0 -0.216136,0.0974 -0.216136,0.21628 v 0 c 0,0.11897 0.09727,0.21626 0.216136,0.21626 h 2.377492 c 0.118869,0 0.216135,-0.0973 0.216135,-0.21626 z"
         class="st0"
         inkscape:connector-curvature="0"
         style="fill:#666666;stroke:#000000;stroke-width:0.01034121;stroke-miterlimit:4;stroke-dasharray:none;stroke-opacity:1" />
      <path
         id="path1430"
         d="m 91.380909,223.63672 c 0,-0.11898 -0.09727,-0.21628 -0.216135,-0.21628 h -2.377492 c -0.118883,0 -0.216136,0.0974 -0.216136,0.21628 v 0 c 0,0.11897 0.09727,0.21627 0.216136,0.21627 h 2.377492 c 0.118869,0 0.216135,-0.0973 0.216135,-0.21627 z"
         class="st0"
         inkscape:connector-curvature="0"
         style="fill:#666666;stroke:#000000;stroke-width:0.01034121;stroke-miterlimit:4;stroke-dasharray:none;stroke-opacity:1" />
      <path
         id="path1432"
         d="m 91.380909,226.23197 c 0,-0.11898 -0.09727,-0.21627 -0.216135,-0.21627 h -2.377492 c -0.118883,0 -0.216136,0.0974 -0.216136,0.21627 v 0 c 0,0.11896 0.09727,0.21627 0.216136,0.21627 h 2.377492 c 0.118869,0 0.216135,-0.0974 0.216135,-0.21627 z"
         class="st0"
         inkscape:connector-curvature="0"
         style="fill:#666666;stroke:#000000;stroke-width:0.01034121;stroke-miterlimit:4;stroke-dasharray:none;stroke-opacity:1" />
      <path
         style="fill:#666666;stroke:#000000;stroke-width:0.01034121;stroke-miterlimit:4;stroke-dasharray:none;stroke-opacity:1"
         inkscape:connector-curvature="0"
         class="st0"
         d="m 91.380909,221.04148 c 0,-0.11897 -0.09727,-0.21628 -0.216135,-0.21628 h -2.377492 c -0.118883,0 -0.216136,0.0974 -0.216136,0.21628 v 0 c 0,0.11897 0.09727,0.21626 0.216136,0.21626 h 2.377492 c 0.118869,0 0.216135,-0.0973 0.216135,-0.21626 z"
         id="path1727" />
      <path
         sodipodi:nodetypes="sssscccccsssss"
         inkscape:connector-curvature="0"
         id="path1436"
         d="m 63.483277,203.39227 c -0.209954,0 -0.376834,0.16095 -0.376834,0.35819 v 12.19011 c 0,0.19715 0.166871,0.35932 0.376834,0.35932 h 7.498552 l -0.766008,2.15145 h 6.253653 l -0.690865,-2.15145 h -3.48395 11.064369 c 0.213511,0 0.386929,-0.16213 0.386929,-0.35932 v -12.19011 c 0,-0.19715 -0.176962,-0.35819 -0.386929,-0.35819 z"
         style="fill:#ffffff;stroke:#000000;stroke-width:0.28947905;stroke-linecap:round;stroke-linejoin:round;stroke-miterlimit:4;stroke-dasharray:none;stroke-opacity:1" />
      <rect
         id="rect1440"
         height="10.039263"
         width="18.505114"
         class="st25"
         y="204.46758"
         x="64.173698"
         style="fill:#19beda;fill-opacity:0.98431373;stroke:#000000;stroke-width:0.17123334;stroke-linecap:round;stroke-linejoin:round;stroke-miterlimit:4;stroke-dasharray:none;stroke-opacity:1" />
      <path
         sodipodi:nodetypes="cscsccccscccscc"
         inkscape:connector-curvature="0"
         id="path1444"
         d="m 45.941209,217.47845 c -3.463289,0 -6.27262,3.11717 -6.27262,6.9647 0,3.53246 2.369491,6.44924 5.441025,6.90123 6.5e-4,0.009 0.0036,0.0115 0.0036,0.0224 v 5.69045 -0.27017 c -1.535474,0.20149 -2.650709,1.02277 -2.650709,1.02277 h 6.303443 c -0.842618,-0.66419 -1.699051,-0.96177 -2.498175,-1.04528 -0.0014,-1.5e-4 -0.0045,0.6502 -0.0045,-6.2e-4 l -0.02442,-5.39265 -0.278385,-0.0221 c 3.315738,-0.18579 6.255721,-3.17843 6.255721,-6.90618 0,-3.84562 -2.809831,-6.96469 -6.275038,-6.96469 z"
         style="fill:#ffffff;stroke:#000000;stroke-width:0.22366302;stroke-linecap:round;stroke-linejoin:round;stroke-miterlimit:6;stroke-dasharray:none;stroke-opacity:1" />
      <path
         id="path1450"
         d="m 50.050973,227.81867 c 0,0.72118 -1.850541,2.74276 -4.132553,2.74276 -2.282014,0 -4.132553,-2.02158 -4.132553,-2.74276 0,-0.72116 1.850539,-1.30425 4.132553,-1.30425 2.282012,0 4.132553,0.585 4.132553,1.30425 z"
         class="st25"
         inkscape:connector-curvature="0"
         style="fill:#ffe32c;fill-opacity:0.97647059;stroke:#000000;stroke-width:0.2231053;stroke-miterlimit:10;stroke-dasharray:none;stroke-opacity:1" />
      <g
         transform="matrix(0.1917658,0,0,0.19180147,-46.742814,177.20034)"
         id="g1474"
         style="stroke-width:0.76948619">
        <ellipse
           ry="23.303051"
           rx="23.302971"
           id="circle1460"
           cy="164.01524"
           cx="503.32437"
           class="st13"
           style="fill:#ffffff;stroke-width:0.76948619" />
        <g
           id="g1472"
           style="stroke-width:0.76948619">
          <path
             id="path1462"
             d="m 483.43,157.29 -0.45,-1.04 -0.45,-1.04 -0.84,-1.02 -0.84,-1.02 0.84,-6.79 0.84,-6.8 c -8.63,0 -15.63,7 -15.63,15.63 0,8.63 7,15.63 15.63,15.63 4.7,0 8.9,-2.07 11.76,-5.34 l -5.44,-4.11 z"
             class="st27"
             inkscape:connector-curvature="0"
             style="fill:none;stroke-width:0.76948619" />
          <path
             id="path1464"
             d="m 482.53,139.59 0.84,6.8 0.84,6.79 -0.84,1.02 -0.84,1.02 1.09,0.31 1.09,0.31 4.79,4.84 4.79,4.84 c 2.41,-2.75 3.87,-6.35 3.87,-10.29 0,-8.64 -7,-15.64 -15.63,-15.64 z"
             class="st27"
             inkscape:connector-curvature="0"
             style="fill:none;stroke-width:0.76948619" />
          <path
             id="path1466"
             d="m 503.51574,136.01624 c -15.44208,0 -27.95473,12.5127 -27.95473,27.95483 0,15.44214 12.51265,27.95483 27.95473,27.95483 15.44209,0 27.96946,-12.51269 27.96946,-27.95483 0,-15.42741 -12.52737,-27.95483 -27.96946,-27.95483 z m 17.31162,43.11727 c -4.22486,4.81371 -10.40758,7.86092 -17.31162,7.86092 -12.70402,0 -23.00855,-10.30457 -23.00855,-23.00864 0,-12.70406 10.30453,-23.00863 23.00855,-23.00863 12.70402,0 23.00856,10.30457 23.00856,23.00863 0,5.8 -2.14923,11.0995 -5.69694,15.14772 z"
             class="st25"
             inkscape:connector-curvature="0"
             style="fill:#d9e021;stroke:#000000;stroke-width:0.76948619;stroke-opacity:1" />
          <polygon
             transform="matrix(1.4720765,0,0,1.4720816,-206.80533,-64.510711)"
             id="polygon1468"
             points="483.58,156.06 482.81,155.84 482.04,155.62 482.36,156.36 482.67,157.09 486.51,159.99 490.35,162.89 486.96,159.48 "
             class="st16"
             style="fill:#4d4d4d;stroke:#000000;stroke-width:0.19756375;stroke-linecap:round;stroke-linejoin:round;stroke-miterlimit:4;stroke-dasharray:none;stroke-opacity:1" />
          <polygon
             transform="matrix(1.4720765,0,0,1.4720816,-206.80533,-64.510711)"
             id="polygon1470"
             points="480.86,154.18 481.45,154.9 482.04,155.62 482.63,154.9 483.22,154.18 482.63,149.39 482.04,144.59 481.45,149.39 "
             class="st16"
             style="fill:#4d4d4d;stroke:#000000;stroke-width:0.12841642;stroke-linecap:round;stroke-linejoin:round;stroke-miterlimit:4;stroke-dasharray:none;stroke-opacity:1" />
        </g>
      </g>
    </g>
  </g>
</svg>
